<?xml version="1.0" encoding="UTF-8"?>
<!DOCTYPE svg PUBLIC "-//W3C//DTD SVG 1.1//EN" "http://www.w3.org/Graphics/SVG/1.1/DTD/svg11.dtd">
<!-- Uploaded to: SVG Repo, www.svgrepo.com, Generator: SVG Repo Mixer Tools -->
<svg width="800px" height="800px" viewBox="0 0 24 24" fill="none" xmlns="http://www.w3.org/2000/svg">
  <path fill-rule="evenodd" clip-rule="evenodd"
    d="M6.47 5.777C6.64843 5.66548 6.82631 5.57017 7.00005 5.48867C7.00341 5.24634 7.03488 5.00375 7.08016 4.76601C7.15702 4.36251 7.31232 3.81288 7.63176 3.25386C8.30808 2.0703 9.63768 1 12 1C14.3623 1 15.6919 2.0703 16.3682 3.25386C16.6877 3.81288 16.843 4.36251 16.9198 4.76601C16.9651 5.00366 16.9966 5.24615 16.9999 5.48839C17.1737 5.56989 17.3516 5.66548 17.53 5.777C18.207 6.20012 18.8425 6.82582 19.2994 7.71927C19.7656 7.53233 20.2282 7.23 20.5429 6.7578C20.7966 6.3773 21 5.82502 21 5C21 4.44772 21.4477 4 22 4C22.5523 4 23 4.44772 23 5C23 6.17498 22.7034 7.1227 22.2071 7.8672C21.5676 8.82639 20.6756 9.34444 19.8991 9.63125C19.9646 10.0513 20 10.5067 20 11V12H22C22.5523 12 23 12.4477 23 13C23 13.5523 22.5523 14 22 14H20V15.5191C19.9891 15.8049 19.9498 16.088 19.9016 16.3697C20.6774 16.6566 21.5683 17.1746 22.2071 18.1328C22.7034 18.8773 23 19.825 23 21C23 21.5523 22.5523 22 22 22C21.4477 22 21 21.5523 21 21C21 20.175 20.7966 19.6227 20.5429 19.2422C20.2401 18.7879 19.8018 18.4912 19.3524 18.3025C19.2288 18.6068 19.0814 18.9213 18.9053 19.237C17.8448 21.1392 15.7816 23 12 23C8.2184 23 6.15524 21.1392 5.09465 19.237C4.91864 18.9213 4.77118 18.6068 4.6476 18.3025C4.19823 18.4912 3.75992 18.7879 3.45705 19.2422C3.20338 19.6227 3 20.175 3 21C3 21.5523 2.55228 22 2 22C1.44772 22 1 21.5523 1 21C1 19.825 1.29662 18.8773 1.79295 18.1328C2.43173 17.1746 3.32255 16.6566 4.09839 16.3697C4.05024 16.0885 4.0127 15.8043 4 15.5191V14H2C1.44772 14 1 13.5523 1 13C1 12.4477 1.44772 12 2 12H4V11C4 10.5067 4.0354 10.0513 4.10086 9.63125C3.3244 9.34444 2.43241 8.82639 1.79295 7.8672C1.29662 7.1227 1 6.17498 1 5C1 4.44772 1.44772 4 2 4C2.55228 4 3 4.44772 3 5C3 5.82502 3.20338 6.3773 3.45705 6.7578C3.77185 7.23 4.2344 7.53233 4.70063 7.71927C5.15748 6.82582 5.79302 6.20012 6.47 5.777ZM14.6318 4.24614C14.7804 4.50632 14.8709 4.77287 14.9251 5H9.07491C9.1291 4.77287 9.21957 4.50632 9.36824 4.24614C9.69192 3.6797 10.3623 3 12 3C13.6377 3 14.3081 3.6797 14.6318 4.24614ZM8.99671 7.00035C8.48495 7.02168 7.96106 7.20358 7.53 7.473C6.84294 7.90241 6 8.81983 6 11V15.4738C6.06537 16.4404 6.37182 17.4207 6.84149 18.263C7.5032 19.4498 8.69637 20.6688 11 20.943V7L8.99671 7.00035ZM13 7V20.943C15.3036 20.6688 16.4968 19.4498 17.1585 18.263C17.6282 17.4206 17.9346 16.4404 18 15.4738V11C18 8.81983 17.1571 7.90241 16.47 7.473C16.0389 7.20358 15.515 7.02168 15.0033 7.00035L13 7Z"
    fill="#FFFFFF" />
</svg>
