<!DOCTYPE svg PUBLIC "-//W3C//DTD SVG 1.1//EN" "http://www.w3.org/Graphics/SVG/1.1/DTD/svg11.dtd">
<!-- Uploaded to: SVG Repo, www.svgrepo.com, Transformed by: SVG Repo Mixer Tools -->
<svg height="800px" width="800px" version="1.1" id="_x32_" xmlns="http://www.w3.org/2000/svg" xmlns:xlink="http://www.w3.org/1999/xlink" viewBox="0 0 512.00 512.00" xml:space="preserve" fill="#ffffff" stroke="#ffffff" transform="rotate(0)">
<g id="SVGRepo_bgCarrier" stroke-width="0"/>
<g id="SVGRepo_tracerCarrier" stroke-linecap="round" stroke-linejoin="round"/>
<g id="SVGRepo_iconCarrier"> <style type="text/css"> .st0{fill:#ffffff;} </style> <g> <path class="st0" d="M118.612,89.297c9.482,0,17.176-7.686,17.176-17.169v-54.96C135.788,7.686,128.094,0,118.612,0 c-9.482,0-17.177,7.686-17.177,17.169v54.96C101.435,81.611,109.13,89.297,118.612,89.297z"/> <path class="st0" d="M255.993,89.297c9.482,0,17.176-7.686,17.176-17.169v-54.96C273.168,7.686,265.474,0,255.993,0 c-9.483,0-17.169,7.686-17.169,17.169v54.96C238.824,81.611,246.51,89.297,255.993,89.297z"/> <path class="st0" d="M427.001,44.899h-2.714v27.229c0,17.038-13.861,30.906-30.914,30.906c-17.038,0-30.914-13.869-30.914-30.906 V44.899h-75.552v27.229c0,17.038-13.87,30.906-30.914,30.906c-17.038,0-30.907-13.869-30.907-30.906V44.899h-75.56v27.229 c0,17.038-13.869,30.906-30.914,30.906c-17.038,0-30.914-13.869-30.914-30.906V44.899h-2.698 c-37.074,0-67.133,30.058-67.133,67.133v332.835c0,37.074,30.058,67.133,67.133,67.133h342.002 c37.066,0,67.133-30.058,67.133-67.133V112.032C494.134,74.958,464.067,44.899,427.001,44.899z M466.643,439.771 c0,24.716-20.029,44.753-44.745,44.753H90.103c-24.716,0-44.76-20.037-44.76-44.753V190.482h421.3V439.771z"/> <path class="st0" d="M393.373,89.297c9.483,0,17.176-7.686,17.176-17.169v-54.96C410.549,7.686,402.855,0,393.373,0 c-9.483,0-17.177,7.686-17.177,17.169v54.96C376.196,81.611,383.89,89.297,393.373,89.297z"/> </g> </g>
</svg>