<!DOCTYPE svg PUBLIC "-//W3C//DTD SVG 1.1//EN" "http://www.w3.org/Graphics/SVG/1.1/DTD/svg11.dtd">
<!-- Uploaded to: SVG Repo, www.svgrepo.com, Transformed by: SVG Repo Mixer Tools -->
<svg width="800px" height="800px" viewBox="0 0 24 24" fill="none" xmlns="http://www.w3.org/2000/svg" stroke="#ffffff">
<g id="SVGRepo_bgCarrier" stroke-width="0"/>
<g id="SVGRepo_tracerCarrier" stroke-linecap="round" stroke-linejoin="round"/>
<g id="SVGRepo_iconCarrier"> <path d="M5.99992 5C5.73263 5 5.59899 5 5.48344 5.00894C4.12112 5.11436 3.00214 6.12702 2.7617 7.47208C2.7413 7.58617 2.728 7.71915 2.70141 7.98511L2.02072 14.5904M9.99992 15H13.9999M9.99992 15C9.99992 17.2091 8.20914 19 6 19C3.79086 19 2 17.2091 2 15C2 12.7909 3.79086 11 6 11C8.20914 11 9.99992 12.7909 9.99992 15ZM13.9999 15C13.9999 17.2091 15.7909 19 18 19C20.2091 19 22 17.2091 22 15C22 12.7909 20.2091 11 18 11C15.7909 11 13.9999 12.7909 13.9999 15ZM18.015 5C18.2823 5 18.4159 5 18.5315 5.00894C19.8938 5.11436 21.0127 6.12702 21.2532 7.47208C21.2736 7.58617 21.2869 7.71915 21.3135 7.98511L21.9804 14.602" stroke="#ffffff" stroke-width="2" stroke-linecap="round" stroke-linejoin="round"/> </g>
</svg>