<?xml version="1.0" encoding="UTF-8"?>
<!DOCTYPE svg PUBLIC "-//W3C//DTD SVG 1.1//EN" "http://www.w3.org/Graphics/SVG/1.1/DTD/svg11.dtd">
<!-- Uploaded to: SVG Repo, www.svgrepo.com, Generator: SVG Repo Mixer Tools -->
<svg fill="#ffffff" height="800px" width="800px" version="1.1" id="Capa_1" viewBox="0 0 295.34 295.34"
  xml:space="preserve" stroke="#ffffff">
  <g id="SVGRepo_bgCarrier" stroke-width="0" />
  <g id="SVGRepo_tracerCarrier" stroke-linecap="round" stroke-linejoin="round" />
  <g id="SVGRepo_iconCarrier">
    <g>
      <path
        d="M91.823,207.386c-4.158-2.405-9.317-4.508-14.778-6.733c-3.339-1.36-6.785-2.768-10.216-4.329l-37.275,67.822 c-2.648,4.82-0.386,7.975,5.028,7.011l17.084-3.043c5.414-0.964,11.513,2.427,13.551,7.535l6.266,15.7 c2.038,5.108,5.874,5.345,8.522,0.525l36.479-66.376c-4.358-2.921-8.369-6.08-12.077-9.005 C99.94,212.969,95.722,209.643,91.823,207.386z" />
      <path
        d="M265.786,264.146l-37.276-67.823c-3.431,1.562-6.877,2.97-10.216,4.33c-5.461,2.225-10.619,4.328-14.778,6.733 c-3.9,2.257-8.119,5.584-12.585,9.106c-3.708,2.924-7.718,6.083-12.076,9.004l36.48,66.377c2.648,4.82,6.484,4.584,8.522-0.525 l6.266-15.7c2.038-5.108,8.137-8.499,13.551-7.535l17.084,3.043C266.172,272.12,268.434,268.966,265.786,264.146z" />
      <path
        d="M99.335,194.402c15.249,8.823,29.449,26.932,48.334,26.932c18.885,0,33.085-18.108,48.335-26.932 c15.733-9.103,38.416-12.657,47.519-28.39c8.823-15.25,0.814-36.462,0.814-55.347c0-18.885,8.009-40.096-0.814-55.346 c-9.104-15.732-31.786-19.286-47.52-28.389C180.754,18.108,166.554,0,147.669,0c-18.885,0-33.085,18.108-48.334,26.932 C83.602,36.033,60.919,39.588,51.817,55.32c-8.824,15.25-0.814,36.461-0.814,55.346c0,18.885-8.01,40.097,0.813,55.347 C60.919,181.745,83.601,185.3,99.335,194.402z M147.669,31.041c43.906,0,79.627,35.72,79.627,79.625 c0,43.906-35.721,79.627-79.627,79.627c-43.905,0-79.625-35.721-79.625-79.627C68.044,66.761,103.764,31.041,147.669,31.041z" />
      <path
        d="M147.669,175.293c35.637,0,64.627-28.99,64.627-64.627c0-35.633-28.99-64.625-64.627-64.625 c-35.635,0-64.625,28.992-64.625,64.625C83.044,146.303,112.034,175.293,147.669,175.293z" />
    </g>
  </g>
</svg>
