<?xml version="1.0" encoding="UTF-8"?>
<!DOCTYPE svg PUBLIC "-//W3C//DTD SVG 1.1//EN" "http://www.w3.org/Graphics/SVG/1.1/DTD/svg11.dtd">
<!-- Uploaded to: SVG Repo, www.svgrepo.com, Generator: SVG Repo Mixer Tools -->
<svg fill="#FFFFFF" width="800px" height="800px" viewBox="0 0 32 32" version="1.1" xmlns="http://www.w3.org/2000/svg">
  <title>arrows-shuffle</title>
  <path
    d="M26.885 18.115c-0.226-0.226-0.539-0.366-0.884-0.366-0.691 0-1.251 0.56-1.251 1.251 0 0.345 0.14 0.658 0.366 0.884l1.865 1.865h-6.68l-1.695-2.459c-0.228-0.328-0.604-0.54-1.029-0.54-0.69 0-1.249 0.559-1.249 1.249 0 0.265 0.083 0.511 0.223 0.713l-0.003-0.004 2.067 3c0.229 0.328 0.604 0.541 1.029 0.541h7.336l-1.865 1.865c-0.226 0.226-0.366 0.539-0.366 0.884 0 0.691 0.56 1.251 1.251 1.251 0.345 0 0.658-0.14 0.884-0.366l4-4c0.225-0.227 0.365-0.54 0.365-0.885s-0.139-0.658-0.365-0.885l0 0zM2 10.249l7.343 0.001 1.694 2.459c0.228 0.329 0.604 0.541 1.029 0.541 0.69 0 1.25-0.56 1.25-1.25 0-0.265-0.082-0.511-0.223-0.713l0.003 0.004-2.066-3c-0.228-0.329-0.604-0.541-1.029-0.541-0 0-0 0-0 0l-8-0.001c-0.69 0-1.25 0.56-1.25 1.25s0.56 1.25 1.25 1.25v0zM26.981 10.25l-1.866 1.866c-0.226 0.226-0.366 0.539-0.366 0.884 0 0.691 0.56 1.251 1.251 1.251 0.346 0 0.658-0.14 0.885-0.367v0l4-4c0.025-0.025 0.034-0.059 0.057-0.086 0.183-0.19 0.296-0.449 0.296-0.735 0-0.001 0-0.003 0-0.004v0c0.001-0.021 0.012-0.038 0.012-0.059s-0.011-0.038-0.012-0.059c0-0.001 0-0.003 0-0.005 0-0.285-0.113-0.543-0.296-0.733l0 0c-0.023-0.027-0.032-0.062-0.058-0.088l-4-4c-0.226-0.227-0.539-0.367-0.885-0.367-0.691 0-1.251 0.56-1.251 1.251 0 0.345 0.14 0.658 0.366 0.884v0l1.866 1.866h-6.981c-0 0-0 0-0 0-0.418 0-0.788 0.205-1.015 0.52l-0.003 0.004-9.626 13.477h-7.356c-0.69 0-1.25 0.56-1.25 1.25s0.56 1.25 1.25 1.25v0h8c0.418-0 0.788-0.205 1.015-0.52l0.003-0.004 9.625-13.477z">
  </path>
</svg>
